<svg width="115" height="31" viewBox="0 0 115 31" fill="none" xmlns="http://www.w3.org/2000/svg">
<path d="M23.6989 22.7163H25.337V29.8151H24.2449L19.8765 25.0098V29.8151H18.2383V22.7163H19.5488L23.6989 27.0848V22.7163Z" fill="#00723D"/>
<path d="M29.8149 22.7163H28.2859V29.8151H29.8149V22.7163Z" fill="#00723D"/>
<path d="M39.2069 24.4637C38.6609 24.0268 37.7872 23.8084 37.0227 23.8084C35.1661 23.8084 34.074 24.9005 34.074 26.4295C34.074 27.6308 34.8385 28.8322 37.0227 28.8322C37.678 28.8322 38.224 28.723 38.8793 28.2861V27.0848H36.6951V25.8835H40.299V28.8322C39.4253 29.5966 38.4424 30.1427 36.9135 30.1427C33.7463 30.1427 32.4358 28.3953 32.4358 26.5387C32.4358 24.5729 33.9648 22.7163 36.9135 22.7163C38.0056 22.7163 39.2069 23.0439 40.0806 23.8084L39.2069 24.4637Z" fill="#00723D"/>
<path d="M49.473 29.8151H43.1387V22.7163H49.473V24.0268H44.7768V25.665H49.3637V26.8664H44.7768V28.5045H49.473V29.8151Z" fill="#00723D"/>
<path d="M59.7387 29.8151H57.8821L55.3703 27.4124H53.8413V29.8151H52.2031V22.7163C53.5137 22.7163 54.9334 22.7163 56.244 22.7163C58.2098 22.7163 59.3019 23.8084 59.3019 25.0098C59.3019 25.9927 58.7558 26.9756 57.1177 27.194L59.7387 29.8151ZM53.8413 23.9176V26.2111H56.244C57.2269 26.2111 57.6637 25.665 57.6637 25.119C57.6637 24.5729 57.2269 24.0268 56.244 24.0268H53.8413V23.9176Z" fill="#00723D"/>
<path d="M63.4521 22.7163H61.9231V29.8151H63.4521V22.7163Z" fill="#00723D"/>
<path d="M72.5166 28.3954H68.1481L67.3836 29.7059H65.6362L69.4586 22.6072H71.206L75.0284 29.7059H73.2811L72.5166 28.3954ZM70.3323 24.2454L68.8034 27.1941H71.9705L70.3323 24.2454Z" fill="#00723D"/>
<path d="M77.1034 29.1598C77.1034 30.1427 75.5745 30.1427 75.5745 29.1598C75.5745 28.1769 77.1034 28.1769 77.1034 29.1598Z" fill="#F48120"/>
<path d="M82.3458 29.1597C81.7997 29.7058 81.1444 29.9242 80.38 29.9242C78.9602 29.9242 77.6497 29.0505 77.6497 27.1939C77.6497 25.3373 78.851 24.4636 80.38 24.4636C81.1444 24.4636 81.6905 24.6821 82.2366 25.2281L81.4721 26.1018C81.1444 25.8834 80.8168 25.665 80.4892 25.665C79.6155 25.665 79.0694 26.3202 79.0694 27.1939C79.0694 28.1768 79.7247 28.7229 80.4892 28.7229C80.926 28.7229 81.2536 28.6137 81.5813 28.286L82.3458 29.1597Z" fill="#FF8300"/>
<path d="M87.9155 27.3033C87.9155 28.723 86.9326 29.9244 85.2944 29.9244C83.6562 29.9244 82.6733 28.723 82.6733 27.3033C82.6733 25.8835 83.6562 24.6822 85.2944 24.6822C86.9326 24.573 87.9155 25.7743 87.9155 27.3033ZM83.9839 27.3033C83.9839 28.0677 84.4207 28.8322 85.4036 28.8322C86.2773 28.8322 86.8234 28.0677 86.8234 27.3033C86.8234 26.5388 86.2773 25.7743 85.4036 25.7743C84.4207 25.7743 83.9839 26.5388 83.9839 27.3033Z" fill="#FF8300"/>
<path d="M92.1748 29.8151V27.0848C92.1748 26.4295 91.8472 25.7742 91.1919 25.7742C90.5366 25.7742 90.0998 26.4295 90.0998 27.0848V29.8151H88.8984V24.6821H90.0998L90.209 25.3374C90.4274 24.7913 91.0827 24.6821 91.5195 24.6821C92.1748 24.6821 92.7209 24.9005 93.0485 25.665C93.4853 24.9005 94.0314 24.6821 94.6867 24.6821C96.1064 24.6821 96.8709 25.5558 96.8709 27.0848V29.8151H95.6696V27.0848C95.6696 26.4295 95.3419 25.8835 94.6867 25.8835C94.0314 25.8835 93.5945 26.4295 93.5945 27.194V29.9243H92.1748V29.8151Z" fill="#FF8300"/>
<path fill-rule="evenodd" clip-rule="evenodd" d="M39.6439 2.2937C36.3675 2.2937 33.528 3.93188 31.8898 6.55296C30.2516 4.04109 27.4121 2.40292 24.245 2.40292C19.2213 2.40292 15.1804 6.33454 15.1804 11.1399C15.1804 15.9452 19.2213 19.8768 24.245 19.8768C29.2687 19.8768 33.3096 15.9452 33.3096 11.1399C33.3096 10.9214 33.3096 10.8122 33.3096 10.5938C33.528 7.42666 36.3675 4.91479 39.6439 4.91479C43.1386 4.91479 46.0873 7.75429 46.0873 11.1399V19.986H47.7255V11.1399C47.7255 10.157 47.8347 9.17405 48.1624 8.30035C46.961 4.80558 43.5755 2.2937 39.6439 2.2937ZM24.245 17.3649C20.7502 17.3649 17.8015 14.5254 17.8015 11.1399C17.8015 7.75429 20.641 4.91479 24.245 4.91479C27.6306 4.91479 30.3609 7.42666 30.5793 10.5938C30.5793 10.8122 30.5793 10.9214 30.5793 11.1399H30.6885C30.6885 14.6346 27.849 17.3649 24.245 17.3649Z" fill="#87C121"/>
<path fill-rule="evenodd" clip-rule="evenodd" d="M14.7436 13.9793C13.6515 15.9451 11.5764 17.3648 9.06458 17.3648C5.5698 17.3648 2.62108 14.5253 2.62108 11.1398C2.62108 7.75421 5.46059 4.9147 9.06458 4.9147C11.5764 4.9147 13.6515 6.33446 14.7436 8.30027C15.0712 7.31736 15.5081 6.44367 16.0541 5.67919C14.416 3.71337 11.9041 2.40283 9.06458 2.40283C4.04083 2.40283 0 6.33446 0 11.1398C0 15.9451 4.04083 19.8767 9.06458 19.8767C11.9041 19.8767 14.416 18.5662 16.0541 16.6004C15.5081 15.8359 15.0712 14.9622 14.7436 13.9793Z" fill="#87C121"/>
<path fill-rule="evenodd" clip-rule="evenodd" d="M65.9638 11.1399C65.9638 10.2662 66.073 9.39247 66.2914 8.51877C65.1993 4.91478 61.7045 2.2937 57.6637 2.2937C52.64 2.2937 48.5991 6.22533 48.5991 11.0306V19.8768H51.2202V11.0306C51.2202 7.64508 54.0597 4.80557 57.6637 4.80557C61.1585 4.80557 64.1072 7.53587 64.1072 11.0306V19.8768H66.7283V14.8531C66.2914 13.7609 65.9638 12.4504 65.9638 11.1399Z" fill="#87C121"/>
<path fill-rule="evenodd" clip-rule="evenodd" d="M96.3247 13.6518C95.3418 15.836 93.0484 17.4742 90.4273 17.4742C86.9325 17.4742 83.9838 14.6347 83.9838 11.2491C83.9838 7.86358 86.8233 5.02408 90.4273 5.02408C92.83 5.02408 94.905 6.33462 95.9971 8.19122V4.36881C94.4681 3.16748 92.5023 2.51221 90.4273 2.51221C87.4786 2.51221 84.8575 3.93196 83.2193 6.00698C81.5811 3.82275 78.9601 2.51221 76.0113 2.51221C70.9876 2.51221 66.9468 6.44383 66.9468 11.2491C66.9468 16.0545 70.9876 19.9861 76.0113 19.9861C78.6324 19.9861 81.0351 18.894 82.6733 17.1466C82.1272 16.3821 81.5812 15.6176 81.2535 14.7439C80.0522 16.3821 78.1956 17.365 76.0113 17.365C72.9534 17.365 70.3323 15.1808 69.6771 12.3413H81.4719C82.1272 16.6005 85.8404 19.8769 90.4273 19.8769C93.376 19.8769 95.9971 18.4571 97.6353 16.3821C97.0892 15.6176 96.5432 14.6347 96.3247 13.6518ZM75.9021 4.91487C78.5232 4.91487 80.7075 6.44383 81.6904 8.62807C81.5812 9.06491 81.4719 9.39255 81.3627 9.82939H69.5679C70.3323 6.98989 72.8442 4.91487 75.9021 4.91487Z" fill="#87C121"/>
<path fill-rule="evenodd" clip-rule="evenodd" d="M112.379 11.1398C112.379 14.5254 109.539 17.3649 105.935 17.3649C102.441 17.3649 99.4919 14.6346 99.4919 11.1398V4.91477H112.27V2.4029H99.4919V0.000244141H96.8708V11.2491C96.8708 16.0544 100.912 19.986 105.935 19.986C110.959 19.986 115 16.0544 115 11.2491H112.379V11.1398Z" fill="#87C121"/>
<path d="M12.2632 10.9031C12.2632 12.9087 10.6372 14.5346 8.63158 14.5346C6.62591 14.5346 5 12.9087 5 10.9031C5 8.8974 6.62591 7.27148 8.63158 7.27148C10.6372 7.27148 12.2632 8.8974 12.2632 10.9031Z" fill="#FF8300"/>
</svg>
